HIERARCHY
ROOT Hips
{
	OFFSET 0.000000 91.145912 0.000000
	CHANNELS 6 Xposition Yposition Zposition Xrotation Yrotation Zrotation
	JOINT RightUpLeg
	{
		OFFSET -7.978616 0.020706 -0.002301
		CHANNELS 6 Xposition Yposition Zposition Xrotation Yrotation Zrotation
		JOINT RightLeg
		{
			OFFSET 0.000000 -41.199947 -0.001895
			CHANNELS 6 Xposition Yposition Zposition Xrotation Yrotation Zrotation
			JOINT RightFoot
			{
				OFFSET 0.000000 -40.188824 -0.003193
				CHANNELS 6 Xposition Yposition Zposition Xrotation Yrotation Zrotation
				JOINT RightToeBase
				{
					OFFSET 0.000000 -7.939033 18.143217
					CHANNELS 6 Xposition Yposition Zposition Xrotation Yrotation Zrotation
					End Site
					{
						OFFSET 0.000000 19.804155 0.000000
					}
				}
			}
		}
	}
	JOINT LeftUpLeg
	{
		OFFSET 7.978616 0.018532 -0.002059
		CHANNELS 6 Xposition Yposition Zposition Xrotation Yrotation Zrotation
		JOINT LeftLeg
		{
			OFFSET 0.000000 -41.199947 -0.001895
			CHANNELS 6 Xposition Yposition Zposition Xrotation Yrotation Zrotation
			JOINT LeftFoot
			{
				OFFSET 0.000000 -40.188824 -0.003193
				CHANNELS 6 Xposition Yposition Zposition Xrotation Yrotation Zrotation
				JOINT LeftToeBase
				{
					OFFSET 0.000000 -7.939033 18.143217
					CHANNELS 6 Xposition Yposition Zposition Xrotation Yrotation Zrotation
					End Site
					{
						OFFSET 0.000000 19.804155 0.000000
					}
				}
			}
		}
	}
	JOINT Spine
	{
		OFFSET 0.000000 9.664871 -1.073875
		CHANNELS 6 Xposition Yposition Zposition Xrotation Yrotation Zrotation
		JOINT Spine1
		{
			OFFSET 0.000000 10.672615 0.000000
			CHANNELS 3 Xrotation Yrotation Zrotation
			JOINT Spine2
			{
				OFFSET 0.000000 9.745026 -0.008016
				CHANNELS 6 Xposition Yposition Zposition Xrotation Yrotation Zrotation
				JOINT Spine3
				{
					OFFSET 0.000000 9.734146 -0.008024
					CHANNELS 6 Xposition Yposition Zposition Xrotation Yrotation Zrotation
					JOINT LeftShoulder
					{
						OFFSET 2.982571 7.645615 0.000000
						CHANNELS 6 Xposition Yposition Zposition Xrotation Yrotation Zrotation
						JOINT LeftArm
						{
							OFFSET 14.068447 0.000000 0.000000
							CHANNELS 6 Xposition Yposition Zposition Xrotation Yrotation Zrotation
							JOINT LeftForeArm
							{
								OFFSET 30.140327 0.000000 0.000000
								CHANNELS 6 Xposition Yposition Zposition Xrotation Yrotation Zrotation
								JOINT LeftHand
								{
									OFFSET 24.636414 0.000000 0.000000
									CHANNELS 6 Xposition Yposition Zposition Xrotation Yrotation Zrotation
									End Site
									{
										OFFSET 0.000000 24.636414 0.000000
									}
								}
							}
						}
					}
					JOINT RightShoulder
					{
						OFFSET -2.982571 7.645615 0.000000
						CHANNELS 6 Xposition Yposition Zposition Xrotation Yrotation Zrotation
						JOINT RightArm
						{
							OFFSET -14.068447 0.000000 0.000000
							CHANNELS 6 Xposition Yposition Zposition Xrotation Yrotation Zrotation
							JOINT RightForeArm
							{
								OFFSET -30.140327 0.000000 0.000000
								CHANNELS 6 Xposition Yposition Zposition Xrotation Yrotation Zrotation
								JOINT RightHand
								{
									OFFSET -24.636414 0.000000 0.000000
									CHANNELS 6 Xposition Yposition Zposition Xrotation Yrotation Zrotation
									JOINT Prop1
									{
										OFFSET -9.043953 -1.004883 2.009767
										CHANNELS 6 Xposition Yposition Zposition Xrotation Yrotation Zrotation
										End Site
										{
											OFFSET 0.000000 9.318909 0.000000
										}
									}
								}
							}
						}
					}
					JOINT Neck
					{
						OFFSET 0.000000 13.630920 0.000000
						CHANNELS 6 Xposition Yposition Zposition Xrotation Yrotation Zrotation
						JOINT Head
						{
							OFFSET 0.000000 9.064621 0.017240
							CHANNELS 6 Xposition Yposition Zposition Xrotation Yrotation Zrotation
							End Site
							{
								OFFSET 0.000000 9.064636 0.000000
							}
						}
					}
				}
			}
		}
	}
}
MOTION
Frames: 5
Frame Time: 0.008333
32.891056 70.026527 -54.460529 6.991564 -66.092640 13.126925 -7.978617 0.020708 -0.002301 -45.295352 -3.978867 -39.646366 0.000002 -41.199944 -0.001897 73.230836 1.702312 -8.214488 -0.000008 -40.188820 -0.003198 -29.620102 1.076405 18.809497 0.000002 -7.939034 18.143215 0.000000 -0.000000 -0.000000 7.978621 0.018515 -0.002060 -41.306252 16.506592 42.060175 -0.000002 -41.199951 -0.001881 54.032814 -2.681074 -1.941890 -0.000002 -40.188820 -0.003195 -17.632931 -13.733511 -30.746062 0.000002 -7.939033 18.143217 0.000000 -0.000000 0.000000 0.000003 9.664866 -1.073875 9.196272 4.542860 -2.330938 -1.768653 2.150160 -0.730279 -0.000003 9.745038 -0.008013 4.051776 2.150234 -0.730057 -0.000001 9.734151 -0.008028 8.874497 1.555050 -0.694872 2.982569 7.645609 0.000004 -0.979598 1.697006 -8.983346 14.068451 0.000004 0.000008 -39.747388 20.432294 -36.909680 30.140320 0.000003 -0.000002 28.273278 -37.936486 9.534717 24.636412 0.000019 0.000003 19.819326 7.096094 5.747520 -2.982572 7.645621 0.000007 -2.459726 -1.909641 2.139466 -14.068440 0.000001 -0.000003 -9.021252 -16.595679 69.445340 -30.140327 -0.000003 -0.000002 -23.389517 63.291716 19.836978 -24.636414 0.000005 0.000009 -6.113820 -5.273771 5.675620 -9.043922 -1.004882 2.009777 2.171738 2.230292 -83.873398 0.000001 13.630915 0.000004 11.532245 15.303473 -10.732167 0.000001 9.064616 0.017235 -13.483349 32.106001 -13.561937 
32.869080 70.169937 -54.430218 7.437055 -66.035649 13.504174 -7.978611 0.020713 -0.002302 -45.373572 -4.052682 -39.617238 -0.000003 -41.199944 -0.001901 73.044925 1.813396 -8.120636 0.000004 -40.188820 -0.003191 -29.317248 0.943520 18.615633 0.000009 -7.939032 18.143217 -0.000000 0.000000 0.000001 7.978620 0.018530 -0.002060 -41.277200 16.517737 42.009488 -0.000002 -41.199955 -0.001894 53.727737 -2.706574 -2.055032 -0.000001 -40.188820 -0.003198 -17.452571 -13.736655 -30.665869 0.000001 -7.939033 18.143219 -0.000000 -0.000001 -0.000000 0.000007 9.664875 -1.073874 9.155419 4.513226 -2.278387 -1.786060 2.133561 -0.709524 -0.000001 9.745031 -0.008021 4.034370 2.133638 -0.709304 0.000003 9.734152 -0.008031 8.861527 1.544072 -0.678277 2.982572 7.645614 0.000009 -1.043778 1.693450 -8.969124 14.068444 0.000003 -0.000001 -39.760256 20.397465 -36.871929 30.140324 0.000001 -0.000002 28.329384 -37.753990 9.624408 24.636404 -0.000007 0.000009 19.845198 7.149291 5.658211 -2.982567 7.645619 0.000005 -2.559384 -1.901286 2.084137 -14.068462 0.000001 -0.000005 -9.330547 -16.541523 69.315615 -30.140341 0.000003 -0.000005 -23.837029 63.394387 20.259342 -24.636417 -0.000010 -0.000000 -6.191231 -5.213532 5.573137 -9.043961 -1.004879 2.009759 2.088886 2.057500 -84.015616 0.000003 13.630920 0.000010 11.498703 15.305170 -10.758043 0.000001 9.064633 0.017247 -13.540134 32.122564 -13.602870 
32.858040 70.293800 -54.406013 7.822908 -65.997905 13.813965 -7.978614 0.020714 -0.002300 -45.436829 -4.136902 -39.585738 -0.000008 -41.199947 -0.001895 72.850593 1.890488 -8.033219 0.000008 -40.188824 -0.003196 -29.082488 0.865829 18.479651 -0.000002 -7.939036 18.143219 -0.000000 0.000000 0.000000 7.978622 0.018542 -0.002058 -41.265520 16.514200 41.971676 -0.000002 -41.199944 -0.001888 53.494185 -2.707558 -2.129369 0.000000 -40.188824 -0.003193 -17.400657 -13.830672 -30.612693 -0.000003 -7.939033 18.143215 0.000000 -0.000003 -0.000000 0.000007 9.664872 -1.073872 9.127629 4.487145 -2.228991 -1.797736 2.118785 -0.689784 0.000000 9.745034 -0.008017 4.022693 2.118861 -0.689566 0.000006 9.734142 -0.008019 8.852848 1.534393 -0.662550 2.982566 7.645607 -0.000010 -1.113985 1.687992 -8.953406 14.068449 0.000014 -0.000002 -39.755611 20.379585 -36.855578 30.140327 -0.000018 0.000000 28.385817 -37.622147 9.713365 24.636414 0.000011 0.000002 19.867854 7.186232 5.596374 -2.982574 7.645609 -0.000010 -2.650613 -1.905172 2.030901 -14.068450 0.000000 0.000005 -9.597071 -16.482761 69.193033 -30.140320 -0.000009 0.000003 -24.202589 63.487592 20.632755 -24.636410 0.000005 0.000013 -6.261753 -5.158208 5.487680 -9.043940 -1.004877 2.009758 2.018307 1.943688 -84.134823 -0.000003 13.630920 -0.000008 11.466569 15.306821 -10.780060 -0.000001 9.064623 0.017253 -13.595532 32.137362 -13.636598 
32.852184 70.413269 -54.365513 8.244081 -65.986765 14.156796 -7.978612 0.020712 -0.002306 -45.516159 -4.259268 -39.600399 0.000008 -41.199951 -0.001903 72.586654 1.922559 -7.933704 -0.000001 -40.188828 -0.003193 -28.915582 0.892399 18.414586 -0.000009 -7.939032 18.143217 -0.000000 0.000000 -0.000001 7.978624 0.018532 -0.002062 -41.295457 16.623224 41.934711 0.000002 -41.199944 -0.001887 53.241762 -2.633750 -2.120512 -0.000000 -40.188835 -0.003197 -17.431042 -13.983963 -30.579290 0.000001 -7.939032 18.143215 -0.000000 -0.000002 -0.000000 0.000005 9.664860 -1.073880 9.095021 4.477435 -2.187672 -1.811756 2.111725 -0.672576 -0.000004 9.745014 -0.008019 4.008673 2.111795 -0.672357 0.000006 9.734129 -0.008025 8.842402 1.530300 -0.649253 2.982567 7.645621 -0.000003 -1.181644 1.674478 -8.945605 14.068452 0.000003 -0.000002 -39.732501 20.355577 -36.828612 30.140339 -0.000002 -0.000003 28.450335 -37.569158 9.815976 24.636412 -0.000001 0.000001 19.893665 7.193081 5.538588 -2.982572 7.645618 -0.000003 -2.742498 -1.938374 1.978279 -14.068457 0.000018 0.000006 -9.827855 -16.386218 69.069072 -30.140327 0.000005 -0.000003 -24.506143 63.594799 20.937398 -24.636412 0.000022 -0.000002 -6.352889 -5.094663 5.427915 -9.043962 -1.004896 2.009764 1.926692 1.890671 -84.250773 -0.000004 13.630916 -0.000002 11.442201 15.301253 -10.799956 -0.000001 9.064612 0.017238 -13.635848 32.137512 -13.671257 
32.848923 70.554390 -54.299488 8.774123 -65.991771 14.578783 -7.978612 0.020705 -0.002305 -45.605525 -4.441267 -39.638528 0.000006 -41.199947 -0.001895 72.205085 1.947551 -7.797966 0.000009 -40.188828 -0.003192 -28.768829 0.974914 18.356244 -0.000008 -7.939033 18.143217 0.000000 -0.000000 -0.000001 7.978618 0.018534 -0.002062 -41.365777 16.811286 41.898771 -0.000006 -41.199955 -0.001892 52.960003 -2.501682 -2.060283 -0.000000 -40.188831 -0.003197 -17.553521 -14.151963 -30.509478 0.000004 -7.939034 18.143217 0.000000 -0.000001 -0.000000 -0.000000 9.664880 -1.073879 9.052173 4.472493 -2.135992 -1.830265 2.106064 -0.650604 0.000002 9.745025 -0.008018 3.990163 2.106131 -0.650386 -0.000001 9.734145 -0.008037 8.828611 1.527569 -0.632514 2.982569 7.645610 -0.000001 -1.263688 1.664052 -8.946543 14.068447 0.000006 0.000004 -39.679902 20.319777 -36.795701 30.140335 -0.000001 0.000003 28.534111 -37.557977 9.954903 24.636421 0.000004 0.000003 19.920839 7.183627 5.488467 -2.982574 7.645621 -0.000001 -2.842323 -1.987526 1.905874 -14.068438 -0.000001 0.000000 -10.074069 -16.253222 68.918084 -30.140322 0.000019 0.000004 -24.834622 63.747890 21.270345 -24.636417 -0.000011 0.000011 -6.482328 -5.009586 5.367114 -9.043943 -1.004882 2.009760 1.811954 1.886262 -84.390232 0.000002 13.630917 -0.000003 11.418907 15.293055 -10.827534 -0.000003 9.064631 0.017246 -13.671082 32.135801 -13.722405 
